<svg width="178" height="27" viewBox="0 0 178 27" fill="none" xmlns="http://www.w3.org/2000/svg">
<path d="M16.7799 0.189926C23.9999 0.189926 29.85 6.18992 29.85 13.5899C29.85 20.9899 23.9999 26.9899 16.7799 26.9899V0.179932V0.189926Z" fill="#F66135"></path>
<path d="M7.52991 0C14.4399 2.13 18.3599 9.61 16.2799 16.7C14.1999 23.79 6.91 27.8 0 25.67L7.52991 0Z" fill="#F66135"></path>
<path d="M45.0299 20.8301C46.9999 20.8301 48.3899 19.8401 48.3899 17.6901C48.3899 15.5401 46.7599 14.6101 44.9099 14.6101H41.46V20.8301H45.0299ZM44.9399 11.5301C46.7799 11.5301 47.9299 10.3801 47.9299 8.70007C47.9299 7.02007 46.75 6.00008 45 6.00008H41.46V11.5301H44.9399ZM45.4199 2.58008C49.5299 2.58008 51.9199 5.03008 51.9199 8.30008C51.9199 10.2901 50.9499 11.9101 49.4399 12.8101V13.0001C50.8299 13.5901 52.62 15.1401 52.62 18.0301C52.62 22.0401 49.5299 24.3401 46.0299 24.3401H37.59V2.58008H45.4299H45.4199Z" fill="#F6F7F8"></path>
<path d="M66.7799 16.2001C66.7799 13.1201 64.96 11.2601 62.48 11.2601C60 11.2601 58.24 13.3101 58.24 16.2001C58.24 19.0901 59.96 21.1101 62.5 21.1101C65.04 21.1101 66.7599 18.9401 66.7599 16.2001M54.25 16.2601C54.25 11.1301 57.28 7.59009 61.63 7.59009C64.38 7.59009 65.92 9.27009 66.47 10.1101H66.6799V8.00009H70.61V24.3501H66.74V22.2701H66.5299C66.0799 22.9501 64.65 24.7601 61.75 24.7601C57.3 24.7601 54.25 21.3401 54.25 16.2801V16.2601Z" fill="#F6F7F8"></path>
<path d="M73.8899 7.99013H77.8199V24.3401H73.8899V7.99013ZM73.4299 3.45012C73.4299 2.05012 74.43 1.12012 75.85 1.12012C77.27 1.12012 78.2699 2.05012 78.2699 3.45012C78.2699 4.85012 77.27 5.81012 75.85 5.81012C74.43 5.81012 73.4299 4.91012 73.4299 3.45012Z" fill="#F6F7F8"></path>
<path d="M81.08 7.98993H84.7999V10.6599H85.0399C85.5599 9.38993 87.01 7.92993 89.21 7.92993H90.6599V11.7799H89.0299C86.5199 11.7799 85.0099 13.6799 85.0099 16.5999V24.3399H81.08V7.98993Z" fill="#F6F7F8"></path>
<path d="M103.92 14.4901C103.74 12.2801 102.08 10.8201 99.7799 10.8201C97.4799 10.8201 95.8799 12.4401 95.6399 14.4901H103.93H103.92ZM91.7599 16.2601C91.7599 11.1001 95.1199 7.59009 99.7799 7.59009C104.89 7.59009 107.67 11.4801 107.67 16.0701V17.3501H95.5699C95.6899 19.8401 97.3499 21.5101 99.8999 21.5101C101.84 21.5101 103.32 20.5801 103.86 19.2401H107.52C106.73 22.5701 103.89 24.7401 99.7799 24.7401C95.0899 24.7401 91.7599 21.1301 91.7599 16.2601Z" fill="#F6F7F8"></path>
<path d="M109.49 19.4301H113.12C113.27 20.8301 114.36 21.5701 116.15 21.5701C117.94 21.5701 118.99 20.7601 118.99 19.6101C118.99 16.1301 109.86 19.4201 109.86 12.5901C109.86 9.82009 112.19 7.59009 116.12 7.59009C119.57 7.59009 122.14 9.3901 122.38 12.6601H118.9C118.72 11.4801 117.81 10.7001 116.09 10.7001C114.49 10.7001 113.46 11.4101 113.46 12.4701C113.46 15.5801 122.81 12.3201 122.81 19.4001C122.81 22.5101 120.36 24.7501 116.1 24.7501C111.84 24.7501 109.66 22.6701 109.51 19.4401" fill="#F6F7F8"></path>
<path d="M132.8 20.7301C136.52 20.7301 139.58 18.4901 139.58 13.3901C139.58 8.29008 136.55 6.18008 132.8 6.18008H129.84V20.7201H132.8V20.7301ZM125.82 2.58008H132.96C139.71 2.58008 143.76 7.05007 143.76 13.4001C143.76 20.1401 139.71 24.3401 132.96 24.3401H125.82V2.58008Z" fill="#F6F7F8"></path>
<path d="M157.7 14.4901C157.52 12.2801 155.86 10.8201 153.56 10.8201C151.26 10.8201 149.66 12.4401 149.42 14.4901H157.71H157.7ZM145.54 16.2601C145.54 11.1001 148.9 7.59009 153.56 7.59009C158.67 7.59009 161.45 11.4801 161.45 16.0701V17.3501H149.35C149.47 19.8401 151.13 21.5101 153.68 21.5101C155.62 21.5101 157.1 20.5801 157.64 19.2401H161.3C160.51 22.5701 157.67 24.7401 153.56 24.7401C148.87 24.7401 145.54 21.1301 145.54 16.2601Z" fill="#F6F7F8"></path>
<path d="M161.9 7.98999H166.02L169.8 19.52H170.04L173.79 7.98999H177.99L172.16 24.34H167.71L161.9 7.98999Z" fill="#F6F7F8"></path>
</svg>